<svg width="52" height="52" viewBox="0 0 52 52" fill="none" xmlns="http://www.w3.org/2000/svg">
<g filter="url(#filter0_d_203_3313)">
<path d="M26 41C34.2843 41 41 34.2843 41 26C41 17.7157 34.2843 11 26 11C17.7157 11 11 17.7157 11 26C11 34.2843 17.7157 41 26 41Z" stroke="#FFFFFE" stroke-width="2" stroke-miterlimit="10"/>
<path d="M27.0608 11.0391C27.0608 12.2383 28.5794 13.3641 28.5794 14.5511C28.5794 16.6436 21.7683 17.5503 21.7683 20.2375C21.7683 22.4084 24.5645 24.031 23.205 25.6573C22.166 26.8871 19.7639 24.8802 19.1545 26.3352C18.5451 27.7902 20.2754 28.7189 21.17 28.8621C22.2517 29.0371 23.3726 28.9294 23.7397 29.8105C24.3516 31.2997 21.6203 32.346 22.3545 33.3934C23.0887 34.4409 28.1389 31.4184 29.2072 32.4145C30.41 33.5244 27.6457 35.8824 27.6457 37.7106C27.6457 39.5388 30.7588 40.2388 30.7588 40.2388" stroke="#FFFFFE" stroke-width="2" stroke-miterlimit="10"/>
<path d="M35.3732 14.2896C33.0103 17.3757 28.8877 21.3282 33.1706 21.3282C35.8884 21.3282 33.7726 24.0938 34.874 24.828C35.4858 25.2342 35.8737 24.3899 36.7009 24.3899C37.5281 24.3899 37.8732 25.5463 38.7812 25.5463C39.9217 25.5463 40.7624 23.2947 40.7624 23.2947" stroke="#FFFFFE" stroke-width="2" stroke-miterlimit="10"/>
<path d="M11.2139 23.467L13.906 22.8098C14.2398 22.71 14.5867 22.6609 14.9351 22.6642C15.1103 22.6683 15.2824 22.7118 15.4385 22.7914C15.5946 22.8711 15.7308 22.9849 15.837 23.1243C16.0939 23.5098 15.9997 24.036 15.7807 24.4447C15.5616 24.8534 15.2374 25.1948 15.0159 25.6011C14.8132 25.9817 14.7054 26.4056 14.7016 26.8368C14.6977 27.2679 14.798 27.6937 14.9938 28.0778C15.1909 28.4547 15.4833 28.7925 15.5788 29.2085C15.6504 29.6124 15.5859 30.0286 15.3952 30.3918C15.2227 30.7589 14.9828 31.093 14.7834 31.4442C14.1695 32.5114 13.8894 33.7381 13.9794 34.966" stroke="#FFFFFE" stroke-width="2" stroke-miterlimit="10"/>
</g>
<defs>
<filter id="filter0_d_203_3313" x="0" y="0" width="52" height="52" filterUnits="userSpaceOnUse" color-interpolation-filters="sRGB">
<feFlood flood-opacity="0" result="BackgroundImageFix"/>
<feColorMatrix in="SourceAlpha" type="matrix" values="0 0 0 0 0 0 0 0 0 0 0 0 0 0 0 0 0 0 127 0" result="hardAlpha"/>
<feOffset/>
<feGaussianBlur stdDeviation="5"/>
<feComposite in2="hardAlpha" operator="out"/>
<feColorMatrix type="matrix" values="0 0 0 0 0 0 0 0 0 0 0 0 0 0 0 0 0 0 0.1 0"/>
<feBlend mode="normal" in2="BackgroundImageFix" result="effect1_dropShadow_203_3313"/>
<feBlend mode="normal" in="SourceGraphic" in2="effect1_dropShadow_203_3313" result="shape"/>
</filter>
</defs>
</svg>
