<svg width="46" height="45" viewBox="0 0 46 45" fill="none" xmlns="http://www.w3.org/2000/svg">
<path d="M22.9 45C35.5473 45 45.8 34.9264 45.8 22.5C45.8 10.0736 35.5473 0 22.9 0C10.2527 0 0 10.0736 0 22.5C0 34.9264 10.2527 45 22.9 45Z" fill="#FF4F37"/>
<path d="M30.9581 27.1862C32.3586 27.1862 33.4939 25.6059 33.4939 23.6564C33.4939 21.7069 32.3586 20.1265 30.9581 20.1265C29.5577 20.1265 28.4224 21.7069 28.4224 23.6564C28.4224 25.6059 29.5577 27.1862 30.9581 27.1862Z" fill="#F2F2F2" stroke="#1B2D45" stroke-width="2" stroke-linecap="round" stroke-linejoin="round"/>
<path d="M27.7729 14.4478C29.72 19.6084 36.196 19.03 36.196 19.03" stroke="#1B2D45" stroke-width="2" stroke-linecap="round" stroke-linejoin="round"/>
<path d="M14.7212 34.5988C14.7212 34.5988 17.9131 31.041 22.8392 31.041C27.7654 31.041 30.9572 34.5988 30.9572 34.5988" stroke="#1B2D45" stroke-width="2" stroke-linecap="round" stroke-linejoin="round"/>
<path d="M14.7218 27.1862C16.1223 27.1862 17.2576 25.6059 17.2576 23.6564C17.2576 21.7069 16.1223 20.1265 14.7218 20.1265C13.3213 20.1265 12.186 21.7069 12.186 23.6564C12.186 25.6059 13.3213 27.1862 14.7218 27.1862Z" fill="#F2F2F2" stroke="#1B2D45" stroke-width="2" stroke-linecap="round" stroke-linejoin="round"/>
<path d="M17.9039 14.4478C15.9604 19.6084 9.48438 19.03 9.48438 19.03" stroke="#1B2D45" stroke-width="2" stroke-linecap="round" stroke-linejoin="round"/>
</svg>
