<svg width="47" height="45" viewBox="0 0 47 45" fill="none" xmlns="http://www.w3.org/2000/svg">
<g opacity="0.5">
<path d="M23.2999 45C35.9472 45 46.1999 34.9264 46.1999 22.5C46.1999 10.0736 35.9472 0 23.2999 0C10.6526 0 0.399902 10.0736 0.399902 22.5C0.399902 34.9264 10.6526 45 23.2999 45Z" fill="#FEBD49"/>
<path d="M11.2798 21.0013C11.2798 21.0013 14.7731 16.7466 16.0038 16.7466C17.2344 16.7466 19.9298 20.5796 19.9298 20.5796" stroke="#1B2D45" stroke-width="2" stroke-linecap="round" stroke-linejoin="round"/>
<path d="M35.3192 21.0013C35.3192 21.0013 31.8223 16.7466 30.5917 16.7466C29.361 16.7466 26.6621 20.5796 26.6621 20.5796" stroke="#1B2D45" stroke-width="2" stroke-linecap="round" stroke-linejoin="round"/>
<path d="M23.3007 37.0307C34.2524 37.0307 37.0187 26.5455 35.82 25.8347C34.6212 25.1238 30.6243 26.8801 23.3007 26.8801C15.9771 26.8801 11.9801 25.1134 10.7814 25.8347C9.58266 26.556 12.3454 37.0307 23.3007 37.0307Z" stroke="#1B2D45" stroke-width="2" stroke-linecap="round" stroke-linejoin="round"/>
<path d="M23.3007 37.0307C34.2524 37.0307 37.0187 26.5455 35.82 25.8347C34.6212 25.1238 30.6243 26.8801 23.3007 26.8801C15.9771 26.8801 11.9801 25.1134 10.7814 25.8347C9.58266 26.556 12.3454 37.0307 23.3007 37.0307Z" fill="#1B2D45" stroke="#1B2D45" stroke-width="2" stroke-linecap="round" stroke-linejoin="round"/>
<mask id="mask0_357_3873" style="mask-type:luminance" maskUnits="userSpaceOnUse" x="10" y="25" width="27" height="13">
<path d="M23.3007 37.0297C34.2524 37.0297 37.0187 26.5446 35.82 25.8337C34.6212 25.1229 30.6243 26.8791 23.3007 26.8791C15.9771 26.8791 11.9801 25.1124 10.7814 25.8337C9.58266 26.555 12.3454 37.0297 23.3007 37.0297Z" fill="white"/>
</mask>
<g mask="url(#mask0_357_3873)">
<path d="M35.3195 24.6978C35.3195 26.5272 37.2843 31.6321 23.3003 31.6321C9.31629 31.6321 11.2811 26.5272 11.2811 24.6978" fill="#F2F2F2"/>
<path d="M35.3195 24.6978C35.3195 26.5272 37.2843 31.6321 23.3003 31.6321C9.31629 31.6321 11.2811 26.5272 11.2811 24.6978" stroke="#1B2D45" stroke-width="2" stroke-linecap="round" stroke-linejoin="round"/>
</g>
</g>
</svg>
