<svg width="52" height="52" viewBox="0 0 52 52" fill="none" xmlns="http://www.w3.org/2000/svg">
<g filter="url(#filter0_d_4_4324)">
<path d="M26 41C34.2843 41 41 34.2843 41 26C41 17.7157 34.2843 11 26 11C17.7157 11 11 17.7157 11 26C11 34.2843 17.7157 41 26 41Z" stroke="#FFFFFE" stroke-width="2" stroke-miterlimit="10"/>
<path d="M27.0608 11.0391C27.0608 12.2383 28.5794 13.3641 28.5794 14.5511C28.5794 16.6436 21.7683 17.5503 21.7683 20.2375C21.7683 22.4084 24.5645 24.031 23.205 25.6573C22.166 26.8871 19.7639 24.8802 19.1545 26.3352C18.5451 27.7902 20.2754 28.7189 21.17 28.8621C22.2517 29.0371 23.3726 28.9294 23.7397 29.8105C24.3516 31.2997 21.6203 32.346 22.3545 33.3934C23.0887 34.4409 28.1389 31.4184 29.2072 32.4145C30.41 33.5244 27.6457 35.8824 27.6457 37.7106C27.6457 39.5388 30.7588 40.2388 30.7588 40.2388" stroke="#FFFFFE" stroke-width="2" stroke-miterlimit="10"/>
<path d="M35.3732 14.2894C33.0103 17.3755 28.8877 21.3281 33.1706 21.3281C35.8884 21.3281 33.7726 24.0936 34.874 24.8278C35.4858 25.2341 35.8737 24.3897 36.7009 24.3897C37.5281 24.3897 37.8732 25.5461 38.7812 25.5461C39.9217 25.5461 40.7624 23.2945 40.7624 23.2945" stroke="#FFFFFE" stroke-width="2" stroke-miterlimit="10"/>
<path d="M11.2141 23.4669L13.9062 22.8098C14.24 22.7099 14.5869 22.6608 14.9353 22.6642C15.1105 22.6683 15.2826 22.7117 15.4387 22.7914C15.5948 22.871 15.731 22.9848 15.8372 23.1243C16.0941 23.5097 15.9999 24.0359 15.7809 24.4446C15.5618 24.8534 15.2375 25.1948 15.0161 25.601C14.8134 25.9816 14.7056 26.4055 14.7017 26.8367C14.6979 27.2679 14.7982 27.6936 14.994 28.0778C15.191 28.4547 15.4835 28.7924 15.579 29.2085C15.6506 29.6124 15.5861 30.0286 15.3954 30.3918C15.2229 30.7589 14.983 31.093 14.7836 31.4442C14.1696 32.5114 13.8896 33.738 13.9796 34.9659" stroke="#FFFFFE" stroke-width="2" stroke-miterlimit="10"/>
</g>
<defs>
<filter id="filter0_d_4_4324" x="0" y="0" width="52" height="52" filterUnits="userSpaceOnUse" color-interpolation-filters="sRGB">
<feFlood flood-opacity="0" result="BackgroundImageFix"/>
<feColorMatrix in="SourceAlpha" type="matrix" values="0 0 0 0 0 0 0 0 0 0 0 0 0 0 0 0 0 0 127 0" result="hardAlpha"/>
<feOffset/>
<feGaussianBlur stdDeviation="5"/>
<feComposite in2="hardAlpha" operator="out"/>
<feColorMatrix type="matrix" values="0 0 0 0 0 0 0 0 0 0 0 0 0 0 0 0 0 0 0.1 0"/>
<feBlend mode="normal" in2="BackgroundImageFix" result="effect1_dropShadow_4_4324"/>
<feBlend mode="normal" in="SourceGraphic" in2="effect1_dropShadow_4_4324" result="shape"/>
</filter>
</defs>
</svg>
