<svg width="47" height="45" viewBox="0 0 47 45" fill="none" xmlns="http://www.w3.org/2000/svg">
<g opacity="0.5">
<path d="M23.5001 45C36.1474 45 46.4001 34.9264 46.4001 22.5C46.4001 10.0736 36.1474 0 23.5001 0C10.8528 0 0.600098 10.0736 0.600098 22.5C0.600098 34.9264 10.8528 45 23.5001 45Z" fill="#FE9943"/>
<path d="M31.6178 27.1862C33.0183 27.1862 34.1536 25.6059 34.1536 23.6564C34.1536 21.7069 33.0183 20.1265 31.6178 20.1265C30.2173 20.1265 29.082 21.7069 29.082 23.6564C29.082 25.6059 30.2173 27.1862 31.6178 27.1862Z" fill="#F2F2F2" stroke="#1B2D45" stroke-width="2" stroke-linecap="round" stroke-linejoin="round"/>
<path d="M15.3776 27.1862C16.778 27.1862 17.9133 25.6059 17.9133 23.6564C17.9133 21.7069 16.778 20.1265 15.3776 20.1265C13.9771 20.1265 12.8418 21.7069 12.8418 23.6564C12.8418 25.6059 13.9771 27.1862 15.3776 27.1862Z" fill="#F2F2F2" stroke="#1B2D45" stroke-width="2" stroke-linecap="round" stroke-linejoin="round"/>
<path d="M22.9415 27.5283C30.0062 27.5283 27.9066 31.9259 24.3601 31.9259C27.9846 31.9259 29.0592 36.3234 22.7783 36.3234" stroke="#1B2D45" stroke-width="2" stroke-linecap="round" stroke-linejoin="round"/>
</g>
</svg>
