<svg width="47" height="45" viewBox="0 0 47 45" fill="none" xmlns="http://www.w3.org/2000/svg">
<g opacity="0.5">
<path d="M23.6998 45C36.3471 45 46.5998 34.9264 46.5998 22.5C46.5998 10.0736 36.3471 0 23.6998 0C11.0525 0 0.799805 10.0736 0.799805 22.5C0.799805 34.9264 11.0525 45 23.6998 45Z" fill="#FF743D"/>
<path d="M31.8175 27.1862C33.218 27.1862 34.3533 25.6059 34.3533 23.6564C34.3533 21.7069 33.218 20.1265 31.8175 20.1265C30.417 20.1265 29.2817 21.7069 29.2817 23.6564C29.2817 25.6059 30.417 27.1862 31.8175 27.1862Z" fill="#F2F2F2" stroke="#1B2D45" stroke-width="2" stroke-linecap="round" stroke-linejoin="round"/>
<path d="M37.0573 19.0464C35.1103 13.8892 28.6343 14.4677 28.6343 14.4677" stroke="#1B2D45" stroke-width="2" stroke-linecap="round" stroke-linejoin="round"/>
<path d="M15.5781 34.5988C15.5781 34.5988 18.77 31.041 23.6997 31.041C28.6294 31.041 31.8177 34.5988 31.8177 34.5988" stroke="#1B2D45" stroke-width="2" stroke-linecap="round" stroke-linejoin="round"/>
<path d="M15.5773 27.1862C16.9777 27.1862 18.1131 25.6059 18.1131 23.6564C18.1131 21.7069 16.9777 20.1265 15.5773 20.1265C14.1768 20.1265 13.0415 21.7069 13.0415 23.6564C13.0415 25.6059 14.1768 27.1862 15.5773 27.1862Z" fill="#F2F2F2" stroke="#1B2D45" stroke-width="2" stroke-linecap="round" stroke-linejoin="round"/>
<path d="M10.3438 19.0464C12.2908 13.8892 18.7632 14.4677 18.7632 14.4677" stroke="#1B2D45" stroke-width="2" stroke-linecap="round" stroke-linejoin="round"/>
</g>
</svg>
