<svg width="46" height="45" viewBox="0 0 46 45" fill="none" xmlns="http://www.w3.org/2000/svg">
<g opacity="0.5">
<path d="M23.1002 45C35.7475 45 46.0002 34.9264 46.0002 22.5C46.0002 10.0736 35.7475 0 23.1002 0C10.4529 0 0.200195 10.0736 0.200195 22.5C0.200195 34.9264 10.4529 45 23.1002 45Z" fill="#FDE24F"/>
<path d="M14.4118 15.5973C9.94315 11.935 3.31112 18.3849 16.7277 25.4552C26.2359 13.4995 16.9334 9.86511 14.4118 15.5973Z" fill="#FF4F37" stroke="#1B2D45" stroke-width="2" stroke-linecap="round" stroke-linejoin="round"/>
<path d="M31.7869 15.5973C36.2591 11.935 42.8876 18.3849 29.4746 25.4552C19.9663 13.4995 29.2831 9.86511 31.7869 15.5973Z" fill="#FF4F37" stroke="#1B2D45" stroke-width="2" stroke-linecap="round" stroke-linejoin="round"/>
<path d="M23.0993 37.8106C33.0296 37.8106 35.5334 28.3046 34.4482 27.66C33.363 27.0153 29.7384 28.6147 23.0993 28.6147C16.4602 28.6147 12.8356 27.0153 11.7504 27.66C10.6651 28.3046 13.169 37.8106 23.0993 37.8106Z" stroke="#1B2D45" stroke-width="2" stroke-linecap="round" stroke-linejoin="round"/>
<path d="M23.0993 37.8106C33.0296 37.8106 35.5334 28.3046 34.4482 27.66C33.363 27.0153 29.7384 28.6147 23.0993 28.6147C16.4602 28.6147 12.8356 27.0153 11.7504 27.66C10.6651 28.3046 13.169 37.8106 23.0993 37.8106Z" fill="#1B2D45" stroke="#1B2D45" stroke-width="2" stroke-linecap="round" stroke-linejoin="round"/>
<mask id="mask0_357_3884" style="mask-type:luminance" maskUnits="userSpaceOnUse" x="11" y="27" width="24" height="11">
<path d="M23.0993 37.8106C33.0296 37.8106 35.5334 28.3046 34.4482 27.66C33.363 27.0153 29.7384 28.6147 23.0993 28.6147C16.4602 28.6147 12.8356 27.0153 11.7504 27.66C10.6651 28.3046 13.169 37.8106 23.0993 37.8106Z" fill="white"/>
</mask>
<g mask="url(#mask0_357_3884)">
<path d="M31.1281 38.1004C31.1281 38.1004 30.1315 33.1035 23.0987 33.1035C16.0659 33.1035 15.0693 38.0865 15.0693 38.0865" fill="#FF4F37"/>
<path d="M31.1281 38.1004C31.1281 38.1004 30.1315 33.1035 23.0987 33.1035C16.0659 33.1035 15.0693 38.0865 15.0693 38.0865" stroke="#1B2D45" stroke-width="2" stroke-linecap="round" stroke-linejoin="round"/>
</g>
</g>
</svg>
