<svg width="39" height="38" viewBox="0 0 39 38" fill="none" xmlns="http://www.w3.org/2000/svg">
<g opacity="0.5">
<path d="M19.3547 37.5697C29.7293 37.5697 38.1395 29.1594 38.1395 18.7849C38.1395 8.41027 29.7293 0 19.3547 0C8.98009 0 0.569824 8.41027 0.569824 18.7849C0.569824 29.1594 8.98009 37.5697 19.3547 37.5697Z" fill="#FF743D"/>
<path d="M26.0137 22.6978C27.1625 22.6978 28.0938 21.3784 28.0938 19.7508C28.0938 18.1231 27.1625 16.8037 26.0137 16.8037C24.8649 16.8037 23.9336 18.1231 23.9336 19.7508C23.9336 21.3784 24.8649 22.6978 26.0137 22.6978Z" fill="#F2F2F2" stroke="#1B2D45" stroke-width="2" stroke-linecap="round" stroke-linejoin="round"/>
<path d="M30.3118 15.9014C28.7146 11.5958 23.4023 12.0787 23.4023 12.0787" stroke="#1B2D45" stroke-width="2" stroke-linecap="round" stroke-linejoin="round"/>
<path d="M12.6924 28.8863C12.6924 28.8863 15.3107 25.916 19.3545 25.916C23.3983 25.916 26.0137 28.8863 26.0137 28.8863" stroke="#1B2D45" stroke-width="2" stroke-linecap="round" stroke-linejoin="round"/>
<path d="M12.6919 22.6978C13.8407 22.6978 14.772 21.3784 14.772 19.7508C14.772 18.1231 13.8407 16.8037 12.6919 16.8037C11.5431 16.8037 10.6118 18.1231 10.6118 19.7508C10.6118 21.3784 11.5431 22.6978 12.6919 22.6978Z" fill="#F2F2F2" stroke="#1B2D45" stroke-width="2" stroke-linecap="round" stroke-linejoin="round"/>
<path d="M8.39893 15.9014C9.99609 11.5958 15.3054 12.0787 15.3054 12.0787" stroke="#1B2D45" stroke-width="2" stroke-linecap="round" stroke-linejoin="round"/>
</g>
</svg>
