<svg width="38" height="38" viewBox="0 0 38 38" fill="none" xmlns="http://www.w3.org/2000/svg">
<g opacity="0.5">
<path d="M19.0637 37.7094C29.4383 37.7094 37.8485 29.2991 37.8485 18.9245C37.8485 8.54992 29.4383 0.139648 19.0637 0.139648C8.68908 0.139648 0.278809 8.54992 0.278809 18.9245C0.278809 29.2991 8.68908 37.7094 19.0637 37.7094Z" fill="#FDE24F"/>
<path d="M11.9364 13.1617C8.27082 10.1041 2.83057 15.489 13.8362 21.3919C21.6358 11.4103 14.0049 8.376 11.9364 13.1617Z" fill="#FF4F37" stroke="#1B2D45" stroke-width="2" stroke-linecap="round" stroke-linejoin="round"/>
<path d="M26.1896 13.1617C29.8581 10.1041 35.2954 15.489 24.2927 21.3919C16.4931 11.4103 24.1356 8.376 26.1896 13.1617Z" fill="#FF4F37" stroke="#1B2D45" stroke-width="2" stroke-linecap="round" stroke-linejoin="round"/>
<path d="M19.0632 31.7069C27.209 31.7069 29.2629 23.7705 28.3727 23.2323C27.4825 22.6941 24.5092 24.0295 19.0632 24.0295C13.6171 24.0295 10.6439 22.6941 9.75367 23.2323C8.86345 23.7705 10.9174 31.7069 19.0632 31.7069Z" stroke="#1B2D45" stroke-width="2" stroke-linecap="round" stroke-linejoin="round"/>
<path d="M19.0632 31.7069C27.209 31.7069 29.2629 23.7705 28.3727 23.2323C27.4825 22.6941 24.5092 24.0295 19.0632 24.0295C13.6171 24.0295 10.6439 22.6941 9.75367 23.2323C8.86345 23.7705 10.9174 31.7069 19.0632 31.7069Z" fill="#1B2D45" stroke="#1B2D45" stroke-width="2" stroke-linecap="round" stroke-linejoin="round"/>
<mask id="mask0_300_4418" style="mask-type:luminance" maskUnits="userSpaceOnUse" x="9" y="23" width="20" height="9">
<path d="M19.0632 31.7069C27.209 31.7069 29.2629 23.7705 28.3727 23.2323C27.4825 22.6941 24.5092 24.0295 19.0632 24.0295C13.6171 24.0295 10.6439 22.6941 9.75367 23.2323C8.86345 23.7705 10.9174 31.7069 19.0632 31.7069Z" fill="white"/>
</mask>
<g mask="url(#mask0_300_4418)">
<path d="M25.649 31.9492C25.649 31.9492 24.8315 27.7773 19.0626 27.7773C13.2936 27.7773 12.4761 31.9375 12.4761 31.9375" fill="#FF4F37"/>
<path d="M25.649 31.9492C25.649 31.9492 24.8315 27.7773 19.0626 27.7773C13.2936 27.7773 12.4761 31.9375 12.4761 31.9375" stroke="#1B2D45" stroke-width="2" stroke-linecap="round" stroke-linejoin="round"/>
</g>
</g>
</svg>
