<svg width="39" height="38" viewBox="0 0 39 38" fill="none" xmlns="http://www.w3.org/2000/svg">
<g opacity="0.5">
<path d="M19.3547 37.7094C29.7293 37.7094 38.1395 29.2991 38.1395 18.9245C38.1395 8.54992 29.7293 0.139648 19.3547 0.139648C8.98009 0.139648 0.569824 8.54992 0.569824 18.9245C0.569824 29.2991 8.98009 37.7094 19.3547 37.7094Z" fill="#FF743D"/>
<path d="M26.0137 22.8374C27.1625 22.8374 28.0938 21.518 28.0938 19.8904C28.0938 18.2628 27.1625 16.9434 26.0137 16.9434C24.8649 16.9434 23.9336 18.2628 23.9336 19.8904C23.9336 21.518 24.8649 22.8374 26.0137 22.8374Z" fill="#F2F2F2" stroke="#1B2D45" stroke-width="2" stroke-linecap="round" stroke-linejoin="round"/>
<path d="M30.3118 16.0411C28.7146 11.7354 23.4023 12.2184 23.4023 12.2184" stroke="#1B2D45" stroke-width="2" stroke-linecap="round" stroke-linejoin="round"/>
<path d="M12.6924 29.026C12.6924 29.026 15.3107 26.0557 19.3545 26.0557C23.3983 26.0557 26.0137 29.026 26.0137 29.026" stroke="#1B2D45" stroke-width="2" stroke-linecap="round" stroke-linejoin="round"/>
<path d="M12.6919 22.8374C13.8407 22.8374 14.772 21.518 14.772 19.8904C14.772 18.2628 13.8407 16.9434 12.6919 16.9434C11.5431 16.9434 10.6118 18.2628 10.6118 19.8904C10.6118 21.518 11.5431 22.8374 12.6919 22.8374Z" fill="#F2F2F2" stroke="#1B2D45" stroke-width="2" stroke-linecap="round" stroke-linejoin="round"/>
<path d="M8.39893 16.0411C9.99609 11.7354 15.3054 12.2184 15.3054 12.2184" stroke="#1B2D45" stroke-width="2" stroke-linecap="round" stroke-linejoin="round"/>
</g>
</svg>
