<svg width="38" height="39" viewBox="0 0 38 39" fill="none" xmlns="http://www.w3.org/2000/svg">
<g opacity="0.5">
<path d="M18.9245 38.139C29.2991 38.139 37.7094 29.7288 37.7094 19.3542C37.7094 8.9796 29.2991 0.569336 18.9245 0.569336C8.54992 0.569336 0.139648 8.9796 0.139648 19.3542C0.139648 29.7288 8.54992 38.139 18.9245 38.139Z" fill="#FE9943"/>
<path d="M25.5835 23.2671C26.7323 23.2671 27.6636 21.9477 27.6636 20.3201C27.6636 18.6925 26.7323 17.373 25.5835 17.373C24.4347 17.373 23.5034 18.6925 23.5034 20.3201C23.5034 21.9477 24.4347 23.2671 25.5835 23.2671Z" fill="#F2F2F2" stroke="#1B2D45" stroke-width="2" stroke-linecap="round" stroke-linejoin="round"/>
<path d="M12.2617 23.2671C13.4105 23.2671 14.3418 21.9477 14.3418 20.3201C14.3418 18.6925 13.4105 17.373 12.2617 17.373C11.1129 17.373 10.1816 18.6925 10.1816 20.3201C10.1816 21.9477 11.1129 23.2671 12.2617 23.2671Z" fill="#F2F2F2" stroke="#1B2D45" stroke-width="2" stroke-linecap="round" stroke-linejoin="round"/>
<path d="M18.4663 23.5527C24.2615 23.5527 22.5393 27.2242 19.63 27.2242C22.6033 27.2242 23.4848 30.8956 18.3325 30.8956" stroke="#1B2D45" stroke-width="2" stroke-linecap="round" stroke-linejoin="round"/>
</g>
</svg>
