<svg width="38" height="38" viewBox="0 0 38 38" fill="none" xmlns="http://www.w3.org/2000/svg">
<g opacity="0.5">
<path d="M18.7849 37.5697C29.1594 37.5697 37.5697 29.1594 37.5697 18.7849C37.5697 8.41027 29.1594 0 18.7849 0C8.41027 0 0 8.41027 0 18.7849C0 29.1594 8.41027 37.5697 18.7849 37.5697Z" fill="#FF4F37"/>
<path d="M25.395 22.6978C26.5438 22.6978 27.4751 21.3784 27.4751 19.7508C27.4751 18.1231 26.5438 16.8037 25.395 16.8037C24.2462 16.8037 23.3149 18.1231 23.3149 19.7508C23.3149 21.3784 24.2462 22.6978 25.395 22.6978Z" fill="#F2F2F2" stroke="#1B2D45" stroke-width="2" stroke-linecap="round" stroke-linejoin="round"/>
<path d="M22.7822 12.0625C24.3794 16.3711 29.6916 15.8881 29.6916 15.8881" stroke="#1B2D45" stroke-width="2" stroke-linecap="round" stroke-linejoin="round"/>
<path d="M12.0757 28.8863C12.0757 28.8863 14.694 25.916 18.7349 25.916C22.7758 25.916 25.3941 28.8863 25.3941 28.8863" stroke="#1B2D45" stroke-width="2" stroke-linecap="round" stroke-linejoin="round"/>
<path d="M12.0762 22.6978C13.225 22.6978 14.1563 21.3784 14.1563 19.7508C14.1563 18.1231 13.225 16.8037 12.0762 16.8037C10.9274 16.8037 9.99609 18.1231 9.99609 19.7508C9.99609 21.3784 10.9274 22.6978 12.0762 22.6978Z" fill="#F2F2F2" stroke="#1B2D45" stroke-width="2" stroke-linecap="round" stroke-linejoin="round"/>
<path d="M14.6863 12.0625C13.092 16.3711 7.77979 15.8881 7.77979 15.8881" stroke="#1B2D45" stroke-width="2" stroke-linecap="round" stroke-linejoin="round"/>
</g>
</svg>
