<svg width="39" height="39" viewBox="0 0 39 39" fill="none" xmlns="http://www.w3.org/2000/svg">
<g opacity="0.5">
<path d="M19.4938 38.139C29.8684 38.139 38.2787 29.7288 38.2787 19.3542C38.2787 8.9796 29.8684 0.569336 19.4938 0.569336C9.11925 0.569336 0.708984 8.9796 0.708984 19.3542C0.708984 29.7288 9.11925 38.139 19.4938 38.139Z" fill="#FEBD49"/>
<path d="M9.63379 18.1029C9.63379 18.1029 12.4994 14.5508 13.5089 14.5508C14.5184 14.5508 16.7294 17.7509 16.7294 17.7509" stroke="#1B2D45" stroke-width="2" stroke-linecap="round" stroke-linejoin="round"/>
<path d="M29.3534 18.1029C29.3534 18.1029 26.4849 14.5508 25.4754 14.5508C24.4659 14.5508 22.252 17.7509 22.252 17.7509" stroke="#1B2D45" stroke-width="2" stroke-linecap="round" stroke-linejoin="round"/>
<path d="M19.4947 31.486C28.4783 31.486 30.7475 22.7321 29.7642 22.1386C28.7809 21.5451 25.5022 23.0114 19.4947 23.0114C13.4871 23.0114 10.2084 21.5364 9.22509 22.1386C8.24178 22.7408 10.5081 31.486 19.4947 31.486Z" stroke="#1B2D45" stroke-width="2" stroke-linecap="round" stroke-linejoin="round"/>
<path d="M19.4947 31.486C28.4783 31.486 30.7475 22.7321 29.7642 22.1386C28.7809 21.5451 25.5022 23.0114 19.4947 23.0114C13.4871 23.0114 10.2084 21.5364 9.22509 22.1386C8.24178 22.7408 10.5081 31.486 19.4947 31.486Z" fill="#1B2D45" stroke="#1B2D45" stroke-width="2" stroke-linecap="round" stroke-linejoin="round"/>
<mask id="mask0_300_4079" style="mask-type:luminance" maskUnits="userSpaceOnUse" x="9" y="21" width="21" height="11">
<path d="M19.4947 31.485C28.4783 31.485 30.7475 22.7311 29.7642 22.1377C28.7809 21.5442 25.5022 23.0104 19.4947 23.0104C13.4871 23.0104 10.2084 21.5354 9.22509 22.1377C8.24178 22.7399 10.5081 31.485 19.4947 31.485Z" fill="white"/>
</mask>
<g mask="url(#mask0_300_4079)">
<path d="M29.3534 21.1895C29.3534 22.7168 30.9651 26.9788 19.494 26.9788C8.02297 26.9788 9.63468 22.7168 9.63468 21.1895" fill="#F2F2F2"/>
<path d="M29.3534 21.1895C29.3534 22.7168 30.9651 26.9788 19.494 26.9788C8.02297 26.9788 9.63468 22.7168 9.63468 21.1895" stroke="#1B2D45" stroke-width="2" stroke-linecap="round" stroke-linejoin="round"/>
</g>
</g>
</svg>
