<svg width="39" height="38" viewBox="0 0 39 38" fill="none" xmlns="http://www.w3.org/2000/svg">
<path d="M19.4938 37.5697C29.8684 37.5697 38.2787 29.1594 38.2787 18.7849C38.2787 8.41027 29.8684 0 19.4938 0C9.11925 0 0.708984 8.41027 0.708984 18.7849C0.708984 29.1594 9.11925 37.5697 19.4938 37.5697Z" fill="#FEBD49"/>
<path d="M9.63379 17.5336C9.63379 17.5336 12.4994 13.9814 13.5089 13.9814C14.5184 13.9814 16.7294 17.1816 16.7294 17.1816" stroke="#1B2D45" stroke-width="2" stroke-linecap="round" stroke-linejoin="round"/>
<path d="M29.3534 17.5336C29.3534 17.5336 26.4849 13.9814 25.4754 13.9814C24.4659 13.9814 22.252 17.1816 22.252 17.1816" stroke="#1B2D45" stroke-width="2" stroke-linecap="round" stroke-linejoin="round"/>
<path d="M19.4947 30.9166C28.4783 30.9166 30.7475 22.1628 29.7642 21.5693C28.7809 20.9758 25.5022 22.4421 19.4947 22.4421C13.4871 22.4421 10.2084 20.9671 9.22509 21.5693C8.24178 22.1715 10.5081 30.9166 19.4947 30.9166Z" stroke="#1B2D45" stroke-width="2" stroke-linecap="round" stroke-linejoin="round"/>
<path d="M19.4947 30.9166C28.4783 30.9166 30.7475 22.1628 29.7642 21.5693C28.7809 20.9758 25.5022 22.4421 19.4947 22.4421C13.4871 22.4421 10.2084 20.9671 9.22509 21.5693C8.24178 22.1715 10.5081 30.9166 19.4947 30.9166Z" fill="#1B2D45" stroke="#1B2D45" stroke-width="2" stroke-linecap="round" stroke-linejoin="round"/>
<mask id="mask0_300_4592" style="mask-type:luminance" maskUnits="userSpaceOnUse" x="9" y="21" width="21" height="10">
<path d="M19.4947 30.9157C28.4783 30.9157 30.7475 22.1618 29.7642 21.5683C28.7809 20.9748 25.5022 22.4411 19.4947 22.4411C13.4871 22.4411 10.2084 20.9661 9.22509 21.5683C8.24178 22.1705 10.5081 30.9157 19.4947 30.9157Z" fill="white"/>
</mask>
<g mask="url(#mask0_300_4592)">
<path d="M29.3534 20.6201C29.3534 22.1475 30.9651 26.4095 19.494 26.4095C8.02297 26.4095 9.63468 22.1475 9.63468 20.6201" fill="#F2F2F2"/>
<path d="M29.3534 20.6201C29.3534 22.1475 30.9651 26.4095 19.494 26.4095C8.02297 26.4095 9.63468 22.1475 9.63468 20.6201" stroke="#1B2D45" stroke-width="2" stroke-linecap="round" stroke-linejoin="round"/>
</g>
</svg>
