<svg width="38" height="38" viewBox="0 0 38 38" fill="none" xmlns="http://www.w3.org/2000/svg">
<g opacity="0.5">
<path d="M18.9245 37.5697C29.2991 37.5697 37.7094 29.1594 37.7094 18.7849C37.7094 8.41027 29.2991 0 18.9245 0C8.54992 0 0.139648 8.41027 0.139648 18.7849C0.139648 29.1594 8.54992 37.5697 18.9245 37.5697Z" fill="#FE9943"/>
<path d="M25.5835 22.6978C26.7323 22.6978 27.6636 21.3784 27.6636 19.7508C27.6636 18.1231 26.7323 16.8037 25.5835 16.8037C24.4347 16.8037 23.5034 18.1231 23.5034 19.7508C23.5034 21.3784 24.4347 22.6978 25.5835 22.6978Z" fill="#F2F2F2" stroke="#1B2D45" stroke-width="2" stroke-linecap="round" stroke-linejoin="round"/>
<path d="M12.2617 22.6978C13.4105 22.6978 14.3418 21.3784 14.3418 19.7508C14.3418 18.1231 13.4105 16.8037 12.2617 16.8037C11.1129 16.8037 10.1816 18.1231 10.1816 19.7508C10.1816 21.3784 11.1129 22.6978 12.2617 22.6978Z" fill="#F2F2F2" stroke="#1B2D45" stroke-width="2" stroke-linecap="round" stroke-linejoin="round"/>
<path d="M18.4663 22.9834C24.2615 22.9834 22.5393 26.6548 19.63 26.6548C22.6033 26.6548 23.4848 30.3263 18.3325 30.3263" stroke="#1B2D45" stroke-width="2" stroke-linecap="round" stroke-linejoin="round"/>
</g>
</svg>
