<svg width="39" height="39" viewBox="0 0 39 39" fill="none" xmlns="http://www.w3.org/2000/svg">
<g opacity="0.5">
<path d="M19.3547 38.139C29.7293 38.139 38.1395 29.7288 38.1395 19.3542C38.1395 8.9796 29.7293 0.569336 19.3547 0.569336C8.98009 0.569336 0.569824 8.9796 0.569824 19.3542C0.569824 29.7288 8.98009 38.139 19.3547 38.139Z" fill="#FF743D"/>
<path d="M26.0137 23.2671C27.1625 23.2671 28.0938 21.9477 28.0938 20.3201C28.0938 18.6925 27.1625 17.373 26.0137 17.373C24.8649 17.373 23.9336 18.6925 23.9336 20.3201C23.9336 21.9477 24.8649 23.2671 26.0137 23.2671Z" fill="#F2F2F2" stroke="#1B2D45" stroke-width="2" stroke-linecap="round" stroke-linejoin="round"/>
<path d="M30.3118 16.4708C28.7146 12.1651 23.4023 12.648 23.4023 12.648" stroke="#1B2D45" stroke-width="2" stroke-linecap="round" stroke-linejoin="round"/>
<path d="M12.6924 29.4557C12.6924 29.4557 15.3107 26.4854 19.3545 26.4854C23.3983 26.4854 26.0137 29.4557 26.0137 29.4557" stroke="#1B2D45" stroke-width="2" stroke-linecap="round" stroke-linejoin="round"/>
<path d="M12.6919 23.2671C13.8407 23.2671 14.772 21.9477 14.772 20.3201C14.772 18.6925 13.8407 17.373 12.6919 17.373C11.5431 17.373 10.6118 18.6925 10.6118 20.3201C10.6118 21.9477 11.5431 23.2671 12.6919 23.2671Z" fill="#F2F2F2" stroke="#1B2D45" stroke-width="2" stroke-linecap="round" stroke-linejoin="round"/>
<path d="M8.39893 16.4708C9.99609 12.1651 15.3054 12.648 15.3054 12.648" stroke="#1B2D45" stroke-width="2" stroke-linecap="round" stroke-linejoin="round"/>
</g>
</svg>
