<svg width="38" height="38" viewBox="0 0 38 38" fill="none" xmlns="http://www.w3.org/2000/svg">
<g opacity="0.5">
<path d="M18.9245 37.7094C29.2991 37.7094 37.7094 29.2991 37.7094 18.9245C37.7094 8.54992 29.2991 0.139648 18.9245 0.139648C8.54992 0.139648 0.139648 8.54992 0.139648 18.9245C0.139648 29.2991 8.54992 37.7094 18.9245 37.7094Z" fill="#FE9943"/>
<path d="M25.5835 22.8374C26.7323 22.8374 27.6636 21.518 27.6636 19.8904C27.6636 18.2628 26.7323 16.9434 25.5835 16.9434C24.4347 16.9434 23.5034 18.2628 23.5034 19.8904C23.5034 21.518 24.4347 22.8374 25.5835 22.8374Z" fill="#F2F2F2" stroke="#1B2D45" stroke-width="2" stroke-linecap="round" stroke-linejoin="round"/>
<path d="M12.2617 22.8374C13.4105 22.8374 14.3418 21.518 14.3418 19.8904C14.3418 18.2628 13.4105 16.9434 12.2617 16.9434C11.1129 16.9434 10.1816 18.2628 10.1816 19.8904C10.1816 21.518 11.1129 22.8374 12.2617 22.8374Z" fill="#F2F2F2" stroke="#1B2D45" stroke-width="2" stroke-linecap="round" stroke-linejoin="round"/>
<path d="M18.4663 23.123C24.2615 23.123 22.5393 26.7945 19.63 26.7945C22.6033 26.7945 23.4848 30.4659 18.3325 30.4659" stroke="#1B2D45" stroke-width="2" stroke-linecap="round" stroke-linejoin="round"/>
</g>
</svg>
