<svg width="38" height="38" viewBox="0 0 38 38" fill="none" xmlns="http://www.w3.org/2000/svg">
<g opacity="0.5">
<path d="M19.0637 37.5697C29.4383 37.5697 37.8485 29.1594 37.8485 18.7849C37.8485 8.41027 29.4383 0 19.0637 0C8.68908 0 0.278809 8.41027 0.278809 18.7849C0.278809 29.1594 8.68908 37.5697 19.0637 37.5697Z" fill="#FDE24F"/>
<path d="M11.9364 13.022C8.27082 9.96443 2.83057 15.3494 13.8362 21.2522C21.6358 11.2707 14.0049 8.23635 11.9364 13.022Z" fill="#FF4F37" stroke="#1B2D45" stroke-width="2" stroke-linecap="round" stroke-linejoin="round"/>
<path d="M26.1896 13.022C29.8581 9.96443 35.2954 15.3494 24.2927 21.2522C16.4931 11.2707 24.1356 8.23635 26.1896 13.022Z" fill="#FF4F37" stroke="#1B2D45" stroke-width="2" stroke-linecap="round" stroke-linejoin="round"/>
<path d="M19.0632 31.5672C27.209 31.5672 29.2629 23.6309 28.3727 23.0927C27.4825 22.5545 24.5092 23.8898 19.0632 23.8898C13.6171 23.8898 10.6439 22.5545 9.75367 23.0927C8.86345 23.6309 10.9174 31.5672 19.0632 31.5672Z" stroke="#1B2D45" stroke-width="2" stroke-linecap="round" stroke-linejoin="round"/>
<path d="M19.0632 31.5672C27.209 31.5672 29.2629 23.6309 28.3727 23.0927C27.4825 22.5545 24.5092 23.8898 19.0632 23.8898C13.6171 23.8898 10.6439 22.5545 9.75367 23.0927C8.86345 23.6309 10.9174 31.5672 19.0632 31.5672Z" fill="#1B2D45" stroke="#1B2D45" stroke-width="2" stroke-linecap="round" stroke-linejoin="round"/>
<mask id="mask0_300_4295" style="mask-type:luminance" maskUnits="userSpaceOnUse" x="9" y="22" width="20" height="10">
<path d="M19.0632 31.5672C27.209 31.5672 29.2629 23.6309 28.3727 23.0927C27.4825 22.5545 24.5092 23.8898 19.0632 23.8898C13.6171 23.8898 10.6439 22.5545 9.75367 23.0927C8.86345 23.6309 10.9174 31.5672 19.0632 31.5672Z" fill="white"/>
</mask>
<g mask="url(#mask0_300_4295)">
<path d="M25.649 31.8095C25.649 31.8095 24.8315 27.6377 19.0626 27.6377C13.2936 27.6377 12.4761 31.7979 12.4761 31.7979" fill="#FF4F37"/>
<path d="M25.649 31.8095C25.649 31.8095 24.8315 27.6377 19.0626 27.6377C13.2936 27.6377 12.4761 31.7979 12.4761 31.7979" stroke="#1B2D45" stroke-width="2" stroke-linecap="round" stroke-linejoin="round"/>
</g>
</g>
</svg>
