<svg width="38" height="38" viewBox="0 0 38 38" fill="none" xmlns="http://www.w3.org/2000/svg">
<path d="M18.7849 37.7094C29.1594 37.7094 37.5697 29.2991 37.5697 18.9245C37.5697 8.54992 29.1594 0.139648 18.7849 0.139648C8.41027 0.139648 0 8.54992 0 18.9245C0 29.2991 8.41027 37.7094 18.7849 37.7094Z" fill="#FF4F37"/>
<path d="M25.395 22.8374C26.5438 22.8374 27.4751 21.518 27.4751 19.8904C27.4751 18.2628 26.5438 16.9434 25.395 16.9434C24.2462 16.9434 23.3149 18.2628 23.3149 19.8904C23.3149 21.518 24.2462 22.8374 25.395 22.8374Z" fill="#F2F2F2" stroke="#1B2D45" stroke-width="2" stroke-linecap="round" stroke-linejoin="round"/>
<path d="M22.7822 12.2021C24.3794 16.5107 29.6916 16.0278 29.6916 16.0278" stroke="#1B2D45" stroke-width="2" stroke-linecap="round" stroke-linejoin="round"/>
<path d="M12.0757 29.026C12.0757 29.026 14.694 26.0557 18.7349 26.0557C22.7758 26.0557 25.3941 29.026 25.3941 29.026" stroke="#1B2D45" stroke-width="2" stroke-linecap="round" stroke-linejoin="round"/>
<path d="M12.0762 22.8374C13.225 22.8374 14.1563 21.518 14.1563 19.8904C14.1563 18.2628 13.225 16.9434 12.0762 16.9434C10.9274 16.9434 9.99609 18.2628 9.99609 19.8904C9.99609 21.518 10.9274 22.8374 12.0762 22.8374Z" fill="#F2F2F2" stroke="#1B2D45" stroke-width="2" stroke-linecap="round" stroke-linejoin="round"/>
<path d="M14.6863 12.2021C13.092 16.5107 7.77979 16.0278 7.77979 16.0278" stroke="#1B2D45" stroke-width="2" stroke-linecap="round" stroke-linejoin="round"/>
</svg>
