<svg width="38" height="39" viewBox="0 0 38 39" fill="none" xmlns="http://www.w3.org/2000/svg">
<g opacity="0.5">
<path d="M19.0637 38.139C29.4383 38.139 37.8485 29.7288 37.8485 19.3542C37.8485 8.9796 29.4383 0.569336 19.0637 0.569336C8.68908 0.569336 0.278809 8.9796 0.278809 19.3542C0.278809 29.7288 8.68908 38.139 19.0637 38.139Z" fill="#FDE24F"/>
<path d="M11.9364 13.5914C8.27082 10.5338 2.83057 15.9187 13.8362 21.8216C21.6358 11.84 14.0049 8.80568 11.9364 13.5914Z" fill="#FF4F37" stroke="#1B2D45" stroke-width="2" stroke-linecap="round" stroke-linejoin="round"/>
<path d="M26.1896 13.5914C29.8581 10.5338 35.2954 15.9187 24.2927 21.8216C16.4931 11.84 24.1356 8.80568 26.1896 13.5914Z" fill="#FF4F37" stroke="#1B2D45" stroke-width="2" stroke-linecap="round" stroke-linejoin="round"/>
<path d="M19.0632 32.1366C27.209 32.1366 29.2629 24.2002 28.3727 23.662C27.4825 23.1238 24.5092 24.4591 19.0632 24.4591C13.6171 24.4591 10.6439 23.1238 9.75367 23.662C8.86345 24.2002 10.9174 32.1366 19.0632 32.1366Z" stroke="#1B2D45" stroke-width="2" stroke-linecap="round" stroke-linejoin="round"/>
<path d="M19.0632 32.1366C27.209 32.1366 29.2629 24.2002 28.3727 23.662C27.4825 23.1238 24.5092 24.4591 19.0632 24.4591C13.6171 24.4591 10.6439 23.1238 9.75367 23.662C8.86345 24.2002 10.9174 32.1366 19.0632 32.1366Z" fill="#1B2D45" stroke="#1B2D45" stroke-width="2" stroke-linecap="round" stroke-linejoin="round"/>
<mask id="mask0_300_4090" style="mask-type:luminance" maskUnits="userSpaceOnUse" x="9" y="23" width="20" height="10">
<path d="M19.0632 32.1366C27.209 32.1366 29.2629 24.2002 28.3727 23.662C27.4825 23.1238 24.5092 24.4591 19.0632 24.4591C13.6171 24.4591 10.6439 23.1238 9.75367 23.662C8.86345 24.2002 10.9174 32.1366 19.0632 32.1366Z" fill="white"/>
</mask>
<g mask="url(#mask0_300_4090)">
<path d="M25.649 32.3789C25.649 32.3789 24.8315 28.207 19.0626 28.207C13.2936 28.207 12.4761 32.3672 12.4761 32.3672" fill="#FF4F37"/>
<path d="M25.649 32.3789C25.649 32.3789 24.8315 28.207 19.0626 28.207C13.2936 28.207 12.4761 32.3672 12.4761 32.3672" stroke="#1B2D45" stroke-width="2" stroke-linecap="round" stroke-linejoin="round"/>
</g>
</g>
</svg>
