<svg width="39" height="38" viewBox="0 0 39 38" fill="none" xmlns="http://www.w3.org/2000/svg">
<g opacity="0.5">
<path d="M19.4938 37.7094C29.8684 37.7094 38.2787 29.2991 38.2787 18.9245C38.2787 8.54992 29.8684 0.139648 19.4938 0.139648C9.11925 0.139648 0.708984 8.54992 0.708984 18.9245C0.708984 29.2991 9.11925 37.7094 19.4938 37.7094Z" fill="#FEBD49"/>
<path d="M9.63379 17.6733C9.63379 17.6733 12.4994 14.1211 13.5089 14.1211C14.5184 14.1211 16.7294 17.3212 16.7294 17.3212" stroke="#1B2D45" stroke-width="2" stroke-linecap="round" stroke-linejoin="round"/>
<path d="M29.3534 17.6733C29.3534 17.6733 26.4849 14.1211 25.4754 14.1211C24.4659 14.1211 22.252 17.3212 22.252 17.3212" stroke="#1B2D45" stroke-width="2" stroke-linecap="round" stroke-linejoin="round"/>
<path d="M19.4947 31.0563C28.4783 31.0563 30.7475 22.3024 29.7642 21.7089C28.7809 21.1155 25.5022 22.5817 19.4947 22.5817C13.4871 22.5817 10.2084 21.1067 9.22509 21.7089C8.24178 22.3111 10.5081 31.0563 19.4947 31.0563Z" stroke="#1B2D45" stroke-width="2" stroke-linecap="round" stroke-linejoin="round"/>
<path d="M19.4947 31.0563C28.4783 31.0563 30.7475 22.3024 29.7642 21.7089C28.7809 21.1155 25.5022 22.5817 19.4947 22.5817C13.4871 22.5817 10.2084 21.1067 9.22509 21.7089C8.24178 22.3111 10.5081 31.0563 19.4947 31.0563Z" fill="#1B2D45" stroke="#1B2D45" stroke-width="2" stroke-linecap="round" stroke-linejoin="round"/>
<mask id="mask0_300_4407" style="mask-type:luminance" maskUnits="userSpaceOnUse" x="9" y="21" width="21" height="11">
<path d="M19.4947 31.0553C28.4783 31.0553 30.7475 22.3014 29.7642 21.708C28.7809 21.1145 25.5022 22.5807 19.4947 22.5807C13.4871 22.5807 10.2084 21.1058 9.22509 21.708C8.24178 22.3102 10.5081 31.0553 19.4947 31.0553Z" fill="white"/>
</mask>
<g mask="url(#mask0_300_4407)">
<path d="M29.3534 20.7598C29.3534 22.2871 30.9651 26.5491 19.494 26.5491C8.02297 26.5491 9.63468 22.2871 9.63468 20.7598" fill="#F2F2F2"/>
<path d="M29.3534 20.7598C29.3534 22.2871 30.9651 26.5491 19.494 26.5491C8.02297 26.5491 9.63468 22.2871 9.63468 20.7598" stroke="#1B2D45" stroke-width="2" stroke-linecap="round" stroke-linejoin="round"/>
</g>
</g>
</svg>
