<svg width="38" height="39" viewBox="0 0 38 39" fill="none" xmlns="http://www.w3.org/2000/svg">
<path d="M18.7849 38.139C29.1594 38.139 37.5697 29.7288 37.5697 19.3542C37.5697 8.9796 29.1594 0.569336 18.7849 0.569336C8.41027 0.569336 0 8.9796 0 19.3542C0 29.7288 8.41027 38.139 18.7849 38.139Z" fill="#FF4F37"/>
<path d="M25.395 23.2671C26.5438 23.2671 27.4751 21.9477 27.4751 20.3201C27.4751 18.6925 26.5438 17.373 25.395 17.373C24.2462 17.373 23.3149 18.6925 23.3149 20.3201C23.3149 21.9477 24.2462 23.2671 25.395 23.2671Z" fill="#F2F2F2" stroke="#1B2D45" stroke-width="2" stroke-linecap="round" stroke-linejoin="round"/>
<path d="M22.7822 12.6318C24.3794 16.9404 29.6916 16.4575 29.6916 16.4575" stroke="#1B2D45" stroke-width="2" stroke-linecap="round" stroke-linejoin="round"/>
<path d="M12.0757 29.4557C12.0757 29.4557 14.694 26.4854 18.7349 26.4854C22.7758 26.4854 25.3941 29.4557 25.3941 29.4557" stroke="#1B2D45" stroke-width="2" stroke-linecap="round" stroke-linejoin="round"/>
<path d="M12.0762 23.2671C13.225 23.2671 14.1563 21.9477 14.1563 20.3201C14.1563 18.6925 13.225 17.373 12.0762 17.373C10.9274 17.373 9.99609 18.6925 9.99609 20.3201C9.99609 21.9477 10.9274 23.2671 12.0762 23.2671Z" fill="#F2F2F2" stroke="#1B2D45" stroke-width="2" stroke-linecap="round" stroke-linejoin="round"/>
<path d="M14.6863 12.6318C13.092 16.9404 7.77979 16.4575 7.77979 16.4575" stroke="#1B2D45" stroke-width="2" stroke-linecap="round" stroke-linejoin="round"/>
</svg>
