<svg width="43" height="44" viewBox="0 0 43 44" fill="none" xmlns="http://www.w3.org/2000/svg">
<path d="M21.5 43.6445C33.3741 43.6445 43 34.0187 43 22.1445C43 10.2704 33.3741 0.644531 21.5 0.644531C9.62588 0.644531 0 10.2704 0 22.1445C0 34.0187 9.62588 43.6445 21.5 43.6445Z" fill="#0075FF"/>
<path d="M12.6781 27.042L25.8871 13.833L29.8238 17.7707L16.6148 30.9798L12.314 31.3429L12.6781 27.042Z" fill="#FFFFFE"/>
<path d="M30.3406 17.2559L26.5082 13.4235L27.6672 12.2645C27.8315 12.1002 28.0543 12.0079 28.2867 12.0079C28.519 12.0079 28.7419 12.1002 28.9062 12.2645L31.4996 14.8579C31.6639 15.0222 31.7562 15.245 31.7562 15.4774C31.7562 15.7097 31.6639 15.9326 31.4996 16.0969L30.3406 17.2559Z" fill="#FFFFFE"/>
</svg>
